<svg class="icon" style="width: 1em;height: 1em;vertical-align: middle;fill: currentColor;overflow: hidden;" viewBox="0 0 1024 1024" version="1.1" xmlns="http://www.w3.org/2000/svg" p-id="4273"><path d="M407.232 122.60266667c13.952-3.94666667 28.16-9.408 42.90133333-7.82933334 11.968 1.536 19.73333333 11.75466667 27.17866667 20.18133334 16.384 18.98666667 27.41333333 42.752 29.696 67.84 1.55733333 11.30666667 0.08533333 22.67733333-0.32 34.00533333-2.432 62.54933333-1.984 125.14133333-2.98666667 187.73333333-0.96 26.51733333-1.344 53.07733333-4.52266666 79.46666667-1.088-0.064-3.264-0.14933333-4.33066667-0.21333333 1.30133333-66.70933333-16.896-131.49866667-35.008-195.11466667-5.20533333-20.07466667-10.176-40.448-10.944-61.26933333-0.832-11.392 1.45066667-22.784 0.192-34.176-5.12-35.34933333-27.02933333-67.264-57.408-85.824 5.73866667 0.53333333 10.19733333-3.66933333 15.552-4.8zM561.19466667 119.59466667c5.93066667-4.672 13.90933333-5.73866667 21.22666666-4.97066667 16.53333333 1.89866667 32.42666667 7.27466667 47.936 13.12-13.632 10.09066667-26.96533333 21.12-36.416 35.392-8.93866667 13.58933333-15.59466667 28.82133333-18.83733333 44.77866667-1.89866667 15.82933333 0.87466667 31.89333333-1.664 47.70133333-2.06933333 28.16-10.77333333 55.18933333-18.176 82.28266667-13.01333333 47.08266667-25.664 95.06133333-26.02666667 144.21333333-1.06666667 8.192-2.13333333 16.40533333-2.60266666 24.68266667-6.10133333-14.528-4.736-30.592-5.78133334-45.952-1.94133333-24.14933333-0.36266667-48.42666667-2.56-72.576 0.14933333-44.8 0.10666667-89.62133333-1.00266666-134.44266667-1.13066667-19.98933333-3.43466667-40.27733333 0.192-60.16 5.09866667-28.928 21.58933333-55.06133333 43.712-74.06933333z" fill="#FDB328" p-id="4274"></path><path d="M308.62933333 163.584c16.32-11.968 34.53866667-21.93066667 54.336-26.66666667 5.67466667-2.112 11.584 1.10933333 15.21066667 5.41866667 8.23466667 9.45066667 12.48 21.504 16.55466667 33.152 11.264 33.51466667 17.04533333 68.71466667 18.90133333 103.97866667 5.248 43.54133333 27.776 82.02666667 44.48 121.792-27.66933333-20.33066667-49.64266667-47.104-70.80533333-73.83466667-32.704-43.84-61.20533333-90.624-93.84533334-134.50666667-2.24-2.92266667-4.032-6.69866667-2.304-10.32533333 3.66933333-7.95733333 10.85866667-13.568 17.472-19.008zM634.09066667 160.768c4.77866667-9.51466667 9.57866667-21.76 21.01333333-24.61866667 17.024 2.26133333 32.61866667 10.47466667 47.25333333 19.09333334 10.944 7.25333333 23.04 14.61333333 29.26933334 26.64533333 3.05066667 4.736-0.78933333 9.36533333-3.47733334 13.12-39.46666667 52.52266667-71.70133333 110.4-114.92266666 160.10666667-14.48533333 16.74666667-30.144 32.64-47.808 46.05866666 5.20533333-15.31733333 13.39733333-29.376 19.73333333-44.24533333 10.79466667-24.81066667 21.33333333-50.32533333 24.34133333-77.44 2.58133333-40.384 8.93866667-81.17333333 24.59733334-118.72zM563.24266667 626.624c18.90133333 16.064 34.47466667 35.62666667 53.056 52.032 14.16533333 13.65333333 30.528 28.37333333 51.43466666 28.50133333 19.968 1.088 37.184-10.34666667 53.41866667-20.352-21.22666667 35.41333333-47.50933333 67.456-74.304 98.77333334-16.02133333 18.048-32.14933333 36.096-49.96266667 52.43733333-7.808 6.976-15.57333333 14.35733333-25.25866666 18.64533333-2.56-1.87733333-3.34933333-4.33066667-2.38933334-7.31733333 6.22933333-36.11733333 14.93333333-72.21333333 14.208-109.09866667-0.512-24.704-3.98933333-49.32266667-10.58133333-73.152-3.136-13.504-8.448-26.56-9.62133333-40.46933333zM409.94133333 678.784c16.74666667-15.38133333 31.08266667-33.25866667 48.55466667-47.85066667-1.19466667 12.71466667-5.80266667 24.704-8.85333333 37.01333334-6.86933333 24.93866667-11.22133333 50.688-11.41333334 76.58666666-0.85333333 34.60266667 6.57066667 68.62933333 12.88533334 102.464 0.81066667 4.97066667 0.42666667 10.00533333 0.17066666 15.01866667-7.552-3.968-14.784-8.55466667-21.03466666-14.37866667-19.66933333-18.02666667-38.144-37.312-55.488-57.55733333-26.85866667-31.25333333-53.33333333-63.27466667-74.21866667-98.90133333 16.29866667 10.112 33.55733333 21.84533333 53.696 20.416 23.12533333-0.29866667 39.936-18.19733333 55.70133333-32.81066667z" fill="#FDFDFD" p-id="4275"></path><path d="M241.024 253.952c8.17066667-21.54666667 21.824-40.64 36.37333333-58.32533333 13.888 36.77866667 31.06133333 72.53333333 53.504 104.896 7.38133333 10.90133333 16.87466667 20.07466667 25.6 29.86666666 11.54133333 11.92533333 21.16266667 25.70666667 34.048 36.352 16.14933333 13.184 34.688 23.01866667 51.008 36.01066667-27.776-14.16533333-56.128-27.328-85.67466666-37.376-16.896-6.10133333-34.752-9.55733333-50.98666667-17.472-23.40266667-11.072-45.78133333-27.008-58.688-50.00533333-7.53066667-13.14133333-11.136-29.48266667-5.184-43.94666667zM745.536 195.66933333c11.69066667 12.8 21.312 27.34933333 29.67466667 42.496 7.168 13.26933333 13.184 28.90666667 8.34133333 44.032-7.936 27.81866667-31.46666667 47.872-56.08533333 61.184-22.86933333 12.97066667-49.28 16.85333333-73.408 26.79466667-25.408 8.93866667-49.19466667 21.632-73.74933334 32.55466667 24.78933333-17.28 52.65066667-31.59466667 71.63733334-55.82933334 14.05866667-17.23733333 31.21066667-31.85066667 43.30666666-50.688 20.84266667-31.25333333 37.46133333-65.25866667 50.28266667-100.544z" fill="#FD6E40" p-id="4276"></path><path d="M770.09066667 341.29066667c11.86133333-10.32533333 18.32533333-24.81066667 25.45066666-38.44266667-0.576 8.87466667-1.57866667 17.74933333-3.648 26.41066667-5.80266667 24.896-13.12 49.792-25.87733333 72.10666666-10.28266667 18.06933333-22.272 35.52-37.84533333 49.42933334-14.16533333 12.39466667-31.744 20.992-50.368 23.91466666-25.10933333 2.368-51.904 1.38666667-74.19733334-11.73333333-8-5.16266667-15.97866667-11.52-20.096-20.288-3.66933333-13.22666667 6.74133333-25.17333333 16.81066667-32.27733333 19.264-12.58666667 42.24-17.28 64.192-23.04 37.39733333-8.64 77.632-17.74933333 105.57866667-46.08zM228.8 304.53333333c0.896 1.74933333 1.77066667 3.52 2.64533333 5.29066667 7.296 18.41066667 21.568 32.832 37.12 44.58666667 18.45333333 13.09866667 40.17066667 20.56533333 61.952 26.00533333 27.328 8.02133333 56.064 11.968 82.048 24.17066667 11.84 5.80266667 23.50933333 14.74133333 27.62666667 27.81866666 2.85866667 9.06666667-3.88266667 17.42933333-10.21866667 23.12533334-18.624 15.38133333-43.56266667 21.09866667-67.30666666 20.05333333-27.05066667 1.17333333-53.46133333-10.944-72.72533334-29.48266667-26.53866667-26.79466667-43.69066667-61.61066667-53.80266666-97.62133333-3.66933333-14.4-7.91466667-28.928-7.33866667-43.94666667z" fill="#3747A8" p-id="4277"></path><path d="M223.616 363.86133333c5.504 9.92 7.936 21.12 12.30933333 31.53066667 13.888 35.17866667 35.66933333 69.46133333 69.248 88.66133333 27.98933333 16.46933333 62.80533333 17.64266667 93.39733334 8.256 19.81866667-5.41866667 37.568-16 55.82933333-25.06666666-19.37066667 13.99466667-38.18666667 28.71466667-57.57866667 42.66666666-22.69866667 16.66133333-47.50933333 32.78933333-61.41866666 58.13333334-6.61333333 10.816-9.55733333 23.65866667-17.28 33.77066666-5.67466667 6.54933333-15.01866667 2.51733333-21.48266667-0.448-27.02933333-13.65333333-45.03466667-40.192-55.89333333-67.73333333-15.01866667-39.44533333-21.16266667-81.94133333-20.77866667-124.032 0.29866667-15.27466667-0.61866667-30.86933333 3.648-45.73866667zM789.48266667 390.656c3.47733333-8.93866667 5.67466667-18.45333333 10.66666666-26.752 5.46133333 23.33866667 3.392 47.53066667 3.09333334 71.27466667-2.752 36.608-9.25866667 73.45066667-24.10666667 107.24266666-11.28533333 24.512-28.71466667 47.78666667-53.65333333 59.56266667-6.016 2.752-14.528 5.888-19.776 0-6.31466667-7.27466667-8.68266667-16.91733333-13.03466667-25.344-9.06666667-20.07466667-24.68266667-36.50133333-42.304-49.38666667-26.944-19.968-54.18666667-39.50933333-80.704-60.01066666 22.848 12.37333333 46.22933333 25.06666667 72.29866667 28.88533333 28.45866667 5.54666667 59.22133333 0.256 83.264-16.256 31.168-20.94933333 51.34933333-54.63466667 64.256-89.216z" fill="#F9BBC8" p-id="4278"></path><path d="M439.68 537.89866667c15.21066667-9.57866667 35.584-11.86133333 51.648-3.072 7.25333333 4.11733333 14.336 8.66133333 20.65066667 14.144 8.32-6.35733333 16.81066667-13.12 26.92266666-16.34133334 16.53333333-3.43466667 34.85866667-1.984 48.96 8.064 22.976 15.76533333 39.63733333 38.67733333 58.34666667 58.96533334 13.888 14.976 31.44533333 27.60533333 51.86133333 31.424 22.18666667 4.33066667 46.784 6.76266667 67.49866667-4.24533334 20.65066667-10.96533333 38.72-26.53866667 53.632-44.48 8.49066667-9.55733333 15.18933333-20.544 23.72266667-30.08-2.13333333 14.31466667-9.74933333 26.88-16.768 39.232-22.208 35.54133333-54.31466667 66.70933333-94.784 80.04266667-20.01066667 7.46666667-41.74933333 7.552-62.76266667 5.84533333-25.92-3.776-48.10666667-20.096-65.472-38.912-14.976-14.912-28.16-32.61866667-47.552-42.06933333-8.91733333-4.672-19.37066667-4.224-28.62933333-7.72266667-10.09066667-5.84533333-11.92533333-18.66666667-15.18933334-28.84266666-3.09333333 9.74933333-5.41866667 20.97066667-13.568 27.88266666-8.384 4.33066667-18.496 3.11466667-27.11466666 6.976-20.05333333 8.40533333-33.96266667 25.81333333-48.29866667 41.38666667-17.89866667 19.47733333-40.64 36.16-67.09333333 41.13066667-21.07733333 1.6-43.02933333 2.048-63.01866667-5.80266667-39.424-13.056-70.976-42.98666667-93.184-77.312-7.89333333-12.992-15.91466667-26.45333333-18.624-41.62133333 13.48266667 15.82933333 24.74666667 33.664 40.40533333 47.57333333 12.77866667 11.11466667 25.87733333 22.89066667 42.304 28.224 13.97333333 4.50133333 28.864 7.85066667 43.584 5.52533333 16.32-2.47466667 33.38666667-5.16266667 47.232-14.848 32.93866667-22.144 50.58133333-61.03466667 85.29066667-81.06666666z" fill="#313131" p-id="4279"></path><path d="M471.68 627.34933333c9.62133333 15.232 25.38666667 29.54666667 44.62933333 28.20266667 15.168-0.87466667 25.74933333-12.69333333 36.18133334-22.29333333-2.53866667 24.21333333-3.73333333 48.59733333-1.856 72.896 2.64533333 24.81066667 1.74933333 49.81333333 1.49333333 74.688-4.71466667 54.67733333-21.46133333 107.328-38.784 159.104-2.368 7.70133333-5.35466667 15.21066667-8.64 22.54933333-16.10666667-55.06133333-28.58666667-111.44533333-33.92-168.64-3.328-34.92266667-0.384-69.952 2.85866667-104.74666667 1.088-20.608-1.728-41.17333333-1.96266667-61.76z" fill="#313131" p-id="4280"></path></svg>