<?xml version="1.0" encoding="UTF-8"?>
<svg id="_图层_1" data-name="图层 1" xmlns="http://www.w3.org/2000/svg" viewBox="0 0 888 500">
  <defs>
    <style>
      .cls-1 {
        fill: #c29571;
      }

      .cls-2 {
        fill: #b19b71;
      }

      .cls-3 {
        fill: #f6cccf;
      }

      .cls-4 {
        fill: #fec52d;
      }

      .cls-5 {
        fill: #fdc62d;
      }

      .cls-6 {
        fill: #96bec0;
      }

      .cls-7 {
        fill: #fd8a49;
      }

      .cls-8 {
        fill: #3bada1;
      }

      .cls-9 {
        fill: #0b59b7;
      }

      .cls-10 {
        fill: #fefefe;
      }

      .cls-11 {
        fill: #093e37;
      }
    </style>
  </defs>
  <rect class="cls-8" width="888" height="500"/>
  <path class="cls-11" d="M447.55,257.54c32.23-18.89,44.9,28.55,70.45,36.95,3.28,1.08,9.97,2.31,13.46,2.54,25.51,1.69,37.45-17.62,52.53-34.03-1.62,7.06-5.98,14.38-10.17,20.32-20.23,28.61-59.28,46.29-88.83,19.19-7.39-6.78-15.29-19.41-25.43-22.57-4.12-1.28-7.6-.21-11.08-2.92-2.8-2.18-4.7-6.5-4.49-10.02-3.01-.72-1.78,2.55-2.77,4.73-3.48,7.65-6.2,4.73-12.23,6.78-15.15,5.14-22.71,20.97-35.66,29.34-35.2,22.75-80.41-10.68-91.36-45.32,1.59-2.09,1.67-.06,2.31.75,17.06,21.59,29.75,38.49,60.72,31.25,27.95-6.54,41.05-55.42,72.04-39.06,6.2,3.27,3.05,6.46,10.5,2.09Z"/>
  <path class="cls-11" d="M458.02,296.01c3.48-2.98.98,7.35.94,8.45-.81,21.5,2.84,42.32-.1,63.9-2.26,16.58-10.28,50.58-17.77,65.22-.54,1.05.52,1.88-2.08,1.42-7.9-31.07-14.99-62.14-14.06-94.55.22-7.49,1.96-16.49,2.09-23.91s-.73-14.32-1.03-21.54c10.21,10.76,19.27,15.77,31.01,3.47.74-.78.87-2.36.99-2.47Z"/>
  <path class="cls-3" d="M410,232c-11.02,8.08-33.1,22.79-40.32,33.23-8.81,12.75-6.35,29.35-26.2,12.79s-27.02-58.94-25.47-83.51c.11-1.68,1.19-11.53,2.49-11.49,1.04.03,6.63,16.74,7.79,19.19,15.99,33.88,45.87,47.27,80.71,28.79,1.41-1.33,1.92-.77,1,1Z"/>
  <path class="cls-3" d="M566,183c.26.34.96,7.14,1.05,8.46,1.75,25.57-4.69,77.46-30.37,90.71-14,7.23-12.23-1.99-17.87-11.48-11.5-19.34-30.46-27.36-46.8-41.69,19.01,9.24,37.2,14.67,57.35,4.84,21.53-10.5,25.81-30,34.55-49.45.36-.81.61-3.35,2.09-1.41Z"/>
  <path class="cls-10" d="M480.35,184.35c-2.66,2.77-4.68,5.96-7.88,8.63-1.31,1.1-4.67,4.35-6.47,3.53,5.91-13.28,14.35-28.28,17.53-42.47,3.86-17.24,2.72-33.22,8.76-51.24,3.53-10.53,5.87-20.53,18.92-16.52,6.3,1.93,27.14,13.39,25.63,20.99-18.63,25.9-34.36,54.01-56.5,77.08Z"/>
  <path class="cls-10" d="M385.71,86.31c5.72,4.57,11.64,26.89,13.03,34.45,1.79,9.72,1.74,19.92,3.38,29.62,2.7,15.99,11.82,31.7,17.88,46.61-.7.74-6.73-4.53-7.64-5.35-6.04-5.41-14.23-14.77-19.32-21.18-15.78-19.83-28.32-43.08-43.88-63.2-1.55-5.63,13.54-15.15,18.17-17.46,4.16-2.07,14.43-6.68,18.39-3.51Z"/>
  <path class="cls-4" d="M492,80.01c1.89,1.98-8.13,9.32-10.03,11.47-16.09,18.21-10,30.43-13.23,51.77-3.9,25.72-14.46,49.98-17.74,77.26-.67,5.6-.33,12.5-1,18.02-.18,1.48-.79,3.06-2,1.47-1.48-17.49-.6-35-.96-52.54-.43-20.8-1.65-42.12-2.08-62.92-.25-12.1,2.24-25.6,9.07-35.79.75-1.12,9.98-11.16,10.67-11.56,7.45-4.27,19.58,2.1,27.31,2.81Z"/>
  <path class="cls-5" d="M437.99,239.99c-1.22,1.64-1.81-.02-2-1.48-.48-3.72.33-8.14,0-12.01-2.69-30.37-15.68-56.96-18.91-84.09-.72-6.02.35-12.85-.04-18.96-1.09-16.96-8.56-31.53-23.04-40.48-.23-1.25,0-1.73,1.04-2.44.63-.43,13.17-4.27,14.54-4.45,10.91-1.45,15.9,3.76,21.83,12,4.41,6.13,8.64,14.95,9.46,22.54,2.86,26.4-3.77,58.75-.83,85.92-2.18,14.35-.18,29.02-2.05,43.45Z"/>
  <path class="cls-9" d="M545.59,207.59c-11.8,16.4-26.69,23.27-47.07,21.39-8.88-.82-28.3-8-25.27-19.24,3.99-14.79,42.55-19.03,55.55-23.45,14.98-5.09,28.63-15.4,34.71-30.29-.15,16.85-8.03,37.84-17.92,51.59Z"/>
  <path class="cls-9" d="M399.69,197.33c.35.15.49,1.37,1.03,1.64,6.23,3.07,7.9,3.94,12.25,9.73,1.89,18.77-26.92,21.8-40.39,20.22-30.46-3.58-48.19-46.06-50.57-72.92,3.21,3.69,4.85,8.74,7.94,12.55,17.09,21.07,47.63,19.43,69.73,28.79Z"/>
  <path class="cls-10" d="M419.99,296.01c.9,1.13-4.12,16.94-4.7,19.79-2.81,13.77-4.36,27.57-3.27,41.69.78,10.08,5.37,22.79,5.75,32.3.26,6.47-8.08-1.01-10.78-3.27-17.28-14.44-37.41-40.96-50.02-59.76-.83-1.23-3.64-2.01-2.96-4.75,6.42,2.67,12.49,7.43,19.76,7.73,16.02.66,31.97-20.26,42.31-30.93.55-.56,3.03-3.93,3.92-2.81Z"/>
  <path class="cls-10" d="M532,320.01c-10.59,16.66-22.77,32.57-36.06,47.2-5.06,5.57-11.21,12.51-16.93,17.31-1.43,1.2-9.68,7.88-11.01,6.48,1.51-17.17,6.68-34.03,6.04-51.54-.55-14.93-5.17-30.13-9.04-44.45,1.72-.45,2,.69,3.01,1.48,15.55,12.27,27.01,36.73,50.43,30.45,5.25-1.41,8.69-5.15,13.56-6.93Z"/>
  <path class="cls-7" d="M484,193c-1.41,1.33-1.92.77-1-1,24.87-16.8,42.72-42.28,55.19-69.31.48-1.04,3.59-12.81,5.81-11.21,7.67,12.11,19.64,23.4,13.77,38.79-10.18,26.67-50.23,31.16-73.77,42.73Z"/>
  <path class="cls-7" d="M396,190c-20.99-9.33-52.74-13.27-65.01-34.49-10.03-17.34,1.47-31.78,13-44.51,4.93,13.6,11.54,28.77,19.6,40.91,6.64,9.99,22.9,28.09,32.41,35.09,2.83,2.43,5.06,4.79,0,3Z"/>
  <path class="cls-1" d="M396,187c4.54,3.34,10.94,5.87,15,9.99-5.46-.23-10.42-4.95-15-6.99,3.62.32,1.29-.86,0-3Z"/>
  <path class="cls-2" d="M483,192l1,1c-.15.07-.64,1.2-1.7,1.76-2.25,1.19-5.79,2.49-8.3,3.23,1.78-3.17,6.44-4.26,9-5.99Z"/>
  <path class="cls-6" d="M409,231c.74-.39,5.44-5.32,6.99-4,1.99,1.69-5.54,4.67-5.99,5l-1-1Z"/>
</svg>